<?xml version="1.0" encoding="UTF-8"?>
<svg width="64" height="64" version="1.1" viewBox="0 0 16.933 16.933" xmlns="http://www.w3.org/2000/svg"><rect transform="rotate(15)" x="10.205" y="7.6678" width="2.0948" height="6.3799" fill="#a05a2c" stop-color="#000000" style="-inkscape-stroke:none"/><path transform="matrix(.15434 0 0 .15434 6.3145 6.897)" d="m55.696 43.82-85.956-16.799 57.526-66.04 14.215 41.42z" fill="#008000" stop-color="#000000" style="-inkscape-stroke:none"/><path transform="matrix(.17772 0 0 .17772 8.8744 -1.6497)" d="m15.431 28.77-6.5119-3.1351-6.2743 3.587 0.96938-7.162-5.3503-4.8588 7.111-1.2913 2.9676-6.5899 3.4255 6.364 7.1844 0.786-4.994 5.2244z" fill="#ff0" stop-color="#000000" style="-inkscape-stroke:none"/><path transform="matrix(.1215 .060562 -.060562 .1215 7.9839 3.9012)" d="m15.431 28.77-6.5119-3.1351-6.2743 3.587 0.96938-7.162-5.3503-4.8588 7.111-1.2913 2.9676-6.5899 3.4255 6.364 7.1844 0.786-4.994 5.2244z" fill="#f0f" stop-color="#000000" style="-inkscape-stroke:none"/><path transform="matrix(.10381 -.043465 .043465 .10381 9.6019 3.9032)" d="m15.431 28.77-6.5119-3.1351-6.2743 3.587 0.96938-7.162-5.3503-4.8588 7.111-1.2913 2.9676-6.5899 3.4255 6.364 7.1844 0.786-4.994 5.2244z" fill="#0f0" stop-color="#000000" style="-inkscape-stroke:none"/><path transform="matrix(.11985 0 0 .11985 7.5301 7.6034)" d="m15.431 28.77-6.5119-3.1351-6.2743 3.587 0.96938-7.162-5.3503-4.8588 7.111-1.2913 2.9676-6.5899 3.4255 6.364 7.1844 0.786-4.994 5.2244z" fill="#f00" stop-color="#000000" style="-inkscape-stroke:none"/><path transform="matrix(.1421 .052303 -.052303 .1421 4.4079 6.8268)" d="m15.431 28.77-6.5119-3.1351-6.2743 3.587 0.96938-7.162-5.3503-4.8588 7.111-1.2913 2.9676-6.5899 3.4255 6.364 7.1844 0.786-4.994 5.2244z" fill="#0ff" stop-color="#000000" style="-inkscape-stroke:none"/><path transform="matrix(.11751 .057488 -.057488 .11751 12.838 8.3718)" d="m15.431 28.77-6.5119-3.1351-6.2743 3.587 0.96938-7.162-5.3503-4.8588 7.111-1.2913 2.9676-6.5899 3.4255 6.364 7.1844 0.786-4.994 5.2244z" fill="#00f" stop-color="#000000" style="-inkscape-stroke:none"/></svg>
