<?xml version="1.0" encoding="UTF-8" standalone="no"?>
<!-- Created with Inkscape (http://www.inkscape.org/) -->

<svg
   width="599.64001mm"
   height="84.251137mm"
   viewBox="0 0 613.326 86.174057"
   version="1.1"
   id="svg5"
   inkscape:version="1.2.2 (b0a8486541, 2022-12-01)"
   sodipodi:docname="logo.svg"
   xmlns:inkscape="http://www.inkscape.org/namespaces/inkscape"
   xmlns:sodipodi="http://sodipodi.sourceforge.net/DTD/sodipodi-0.dtd"
   xmlns="http://www.w3.org/2000/svg"
   xmlns:svg="http://www.w3.org/2000/svg">
  <sodipodi:namedview
     id="namedview7"
     pagecolor="#196415"
     bordercolor="#666666"
     borderopacity="1.0"
     inkscape:showpageshadow="2"
     inkscape:pageopacity="0"
     inkscape:pagecheckerboard="false"
     inkscape:deskcolor="#196415"
     inkscape:document-units="mm"
     showgrid="false"
     showborder="true"
     inkscape:zoom="0.49449362"
     inkscape:cx="1328.6319"
     inkscape:cy="191.10459"
     inkscape:window-width="960"
     inkscape:window-height="1011"
     inkscape:window-x="20"
     inkscape:window-y="20"
     inkscape:window-maximized="0"
     inkscape:current-layer="layer1" />
  <defs
     id="defs2" />
  <g
     inkscape:label="Layer 1"
     inkscape:groupmode="layer"
     id="layer1"
     transform="translate(-15.997914,-17.234363)">
    <path
       d="m 32.913606,17.234363 11.17074,2.872476 c 2.567026,1.220675 9.039754,-0.886496 11.17074,-1.276656 0.354627,0 0.992955,-0.106388 1.914984,-0.319164 1.205731,-0.283701 2.482387,-0.425552 3.829968,-0.425552 -1.825596,1.244024 -3.689273,2.634736 -5.3194,3.829968 -2.539995,1.862359 -4.290983,3.156177 -5.213012,3.936356 -1.844059,1.702208 -3.053336,3.488786 -3.936356,5.213012 -0.698921,1.364745 -0.967626,2.465857 -1.59582,4.149132 -0.753529,5.238233 -0.03771,12.154674 -0.212776,17.234856 -0.141851,2.411461 -0.390089,6.028653 -0.744716,10.851576 -0.04356,2.678986 -0.215554,5.279179 -0.53194,7.766324 -0.638328,2.12776 -1.453969,3.900893 -2.446924,5.3194 -1.550625,2.368771 -2.410997,3.397317 -3.936356,5.425788 -0.212776,0.212776 -0.354627,0.425552 -0.425552,0.638328 3.049789,-1.914984 5.709489,-4.149132 7.9791,-6.702444 2.269611,-2.624237 3.652655,-5.744952 4.149132,-9.362144 V 39.575843 c 0,-7.518085 6.135041,-13.972291 18.405124,-19.362616 2.023269,-0.818002 4.88154,-2.070903 7.340772,-2.553312 1.041317,-0.153605 1.925509,-0.303096 2.766088,-0.106388 3.617192,0.638328 6.844295,2.872476 9.681308,6.702444 0.517016,1.611671 0.638328,3.324887 0.638328,5.000236 0,3.759043 -1.205731,7.234384 -3.617192,10.426024 -3.235033,3.948431 -5.545849,6.077789 -8.617428,9.149368 1.244144,0.05044 2.061211,0.128672 3.085252,0.319164 7.097661,1.320306 11.028889,4.751997 11.809068,10.213248 v 21.383988 l -9.894084,2.340536 c -2.12776,0.922029 -5.283937,2.411461 -9.468532,4.468296 -2.907939,1.560357 -5.886803,3.298028 -8.936592,5.213012 -9.096485,-3.880087 -15.900027,-4.714912 -24.788404,-4.681072 -3.759043,0.212776 -7.376235,1.347581 -10.851576,3.404416 -0.808288,1.254381 -1.794183,2.429464 -1.808596,3.936356 0.142734,2.048975 1.03917,3.637345 1.808596,5.744947 -0.283701,0.99296 -0.877425,1.50514 -1.59582,1.91499 -0.574044,0.3275 -1.439545,0.3626 -2.021372,0.10639 -0.784321,-0.34537 -1.418507,-0.81564 -1.914984,-1.38305 -1.574314,-2.735537 -0.60231,-7.28368 1.06388,-9.468529 0.141851,-0.212776 0.815641,-0.992955 2.021372,-2.340536 0.496477,-0.567403 1.241193,-1.383044 2.234148,-2.446924 l 2.6597,-2.6597 c 0.780179,-0.780179 1.489432,-1.59582 2.12776,-2.446924 0.973896,-1.409877 1.667909,-3.050624 2.12776,-4.574684 1.706142,-5.499047 -3.418495,-6.505184 -7.553548,-5.000236 -0.709253,0.354627 -1.737671,0.992955 -3.085252,1.914984 -2.415028,-2.615222 1.64244,-6.832268 3.510804,-7.872712 1.702208,-1.205731 3.581729,-1.844059 5.638564,-1.914984 1.044478,-0.172888 1.801512,0.0482 2.234148,-0.744716 0.660346,-1.776303 -0.654719,-3.879079 -1.59582,-4.893848 -1.988346,-2.05105 -4.018487,-3.29455 -6.702444,-3.510804 -1.931728,0.25575 -4.445287,1.151593 -5.85134,1.808596 -0.856175,0.400062 -1.792543,1.109877 -2.766088,1.276656 l -0.212776,-0.638328 c 0,-4.468296 3.298028,-7.766324 9.894084,-9.894084 0.212776,-0.07093 0.602865,-0.177313 1.170268,-0.319164 0.141851,0 0.496477,-0.07093 1.06388,-0.212776 0.283701,-0.07093 0.638328,-0.141851 1.06388,-0.212776 0.496477,-0.07092 0.851104,-0.106388 1.06388,-0.106388 v -0.638328 c 0,-0.07093 0.03546,-0.177313 0.106388,-0.319164 v -0.319164 c 0.07092,-0.780179 0.248239,-1.950447 0.53194,-3.510804 0.496477,-3.120715 1.985909,-6.312355 4.468296,-9.57492 l 8.830204,-7.021608 c -0.283701,0.283701 -0.957492,0.602865 -2.021372,0.957492 -0.496477,0.07092 -1.170268,0.283701 -2.021372,0.638328 -0.496477,0.07093 -1.205731,0.177313 -2.12776,0.319164 -4.23626,0.935639 -7.237535,-1.247706 -11.17074,-1.808596 -0.868511,-0.123853 -1.737671,-0.319164 -2.6597,-0.319164 -0.992955,0 -2.212187,0.131481 -3.510804,0.744716 -1.264923,0.597324 -2.219984,1.572675 -3.085252,2.553312 -0.199089,0.225634 -0.390089,0.425552 -0.53194,0.638328 -0.141851,0.212776 -0.319164,0.673791 -0.53194,1.383044 -0.07093,0.07092 -0.177313,0.283701 -0.319164,0.638328 -0.502375,-0.402755 -0.700689,-1.485638 -0.851104,-2.234148 0.08579,-2.020907 0.985895,-3.579479 1.808596,-5.106624 0.150434,-0.279245 0.509923,-0.834186 1.170268,-1.59582 0.880789,-1.015893 1.699505,-2.122711 2.553312,-2.978864 1.276656,-0.709253 2.6597,-1.347581 4.149132,-1.914984 1.560357,-0.567403 3.085275,-0.859297 4.574684,-0.851104 0.42289,0.0023 1.758393,0.0054 2.6597,0 z m 33.405832,57.343132 v 7.44716 l 5.744952,2.021372 5.957728,-2.6597 v -6.808832 c -3.748709,-1.236102 -7.622112,-1.133315 -11.70268,0 z M 67.80887,23.404867 c -3.437681,0.695614 -8.047039,5.327516 -8.085488,8.723816 v 30.107804 c 0,4.539221 -1.59582,8.191876 -4.78746,10.957964 -3.120715,2.695163 -6.596056,4.964773 -10.426024,6.808832 6.657748,-1.167579 12.868003,0.319164 19.362616,0.319164 V 40.746111 h 2.446924 v 11.17074 c 2.624237,-1.276656 5.035699,-3.439879 7.234384,-6.489668 2.056835,-2.837013 3.085252,-5.886803 3.085252,-9.149368 -0.297314,-6.061149 -2.488689,-8.814824 -7.44716,-12.341008 -0.408079,-0.226805 -0.907067,-0.42652 -1.383044,-0.53194 z m -1.489432,47.8746 c 3.752423,-0.605825 8.250301,-0.529259 11.70268,0.212776 v -7.659936 c -3.240104,1.000193 -8.355359,0.618051 -11.70268,-0.212776 z m 5.957728,-19.788168 -5.957728,4.361908 v 4.681072 c 0.07092,0.212776 0.141851,0.354627 0.212776,0.425552 3.953345,1.092716 8.043571,1.486366 10.957964,-0.212776 v -2.234148 c 0,-1.347581 -0.459672,-2.825592 -1.489432,-4.361908 -0.945037,-1.409917 -2.159994,-2.446282 -3.72358,-2.6597 z"
       style="font-size:106.388px;font-family:'Headline Text';-inkscape-font-specification:'Cloister Black, ';letter-spacing:0px;word-spacing:0px;fill:#70ea6c;fill-opacity:0.67451;stroke-width:0.554105"
       id="path3880"
       sodipodi:nodetypes="scsccscscccccccccscccccccscscscccccccccccccccccsccccccsccccccscscsscscccccccssssssscccssccsccsccsccccscscscsccccsc" />
    <path
       d="m 121.00297,20.319615 c -1.98591,1.773133 -3.29802,3.475341 -3.93635,5.106624 -0.70925,1.914984 -1.24119,3.936356 -1.59582,6.064116 v 47.236272 l 5.74495,4.361908 1.91498,-1.489432 1.59582,1.808596 -10.10686,8.936592 c -2.12776,-2.12776 -4.18459,-3.865431 -6.1705,-5.213012 -2.26961,-1.560357 -4.68108,-2.837013 -7.23439,-3.829968 2.76609,-1.773133 4.14914,-4.184595 4.14914,-7.234384 v -46.81072 c -0.78018,-2.837013 -2.30508,-5.177549 -4.57469,-7.021608 3.20639,-0.08807 7.1445,2.826808 8.51104,4.361908 1.48943,-1.702208 2.76609,-2.943401 3.82997,-3.72358 1.34758,-1.134805 2.93613,-1.947805 4.78746,-2.340536 1.4201,-0.301253 2.38256,-0.212776 3.08525,-0.212776 z"
       style="font-size:106.388px;font-family:'Headline Text';-inkscape-font-specification:'Cloister Black, ';letter-spacing:0px;word-spacing:0px;fill:#70ea6c;fill-opacity:0.67451;stroke-width:0.554105"
       id="path3882"
       sodipodi:nodetypes="ccccccccccsccccsc" />
    <path
       d="m 139.51456,39.150291 7.76632,7.021608 -3.08525,4.042744 v 29.895028 c 0,1.134805 0.14185,2.056835 0.42555,2.766088 0.35463,0.638328 0.99295,1.170268 1.91498,1.59582 l 2.44693,-2.021372 1.59582,1.59582 -9.46853,8.085488 c -1.70221,0 -3.12072,-0.567403 -4.25552,-1.702208 -1.63129,-1.631283 -2.51785,-3.404416 -2.6597,-5.3194 -0.0709,-0.283701 -0.10639,-0.709253 -0.10639,-1.276656 V 50.001867 l -2.44693,-4.25552 z m 3.5108,-17.128468 h 6.38328 l -8.51104,11.489904 z"
       style="font-size:106.388px;font-family:'Headline Text';-inkscape-font-specification:'Cloister Black, ';letter-spacing:0px;word-spacing:0px;fill:#70ea6c;fill-opacity:0.67451;stroke-width:0.554105"
       id="path3884"
       sodipodi:nodetypes="cccscccccscsccccccc" />
    <path
       d="m 163.66467,38.511963 c 1.91499,1.702208 3.54627,3.546267 4.89385,5.532176 1.34758,1.985909 2.05683,4.184595 2.12776,6.596056 l 13.19211,-11.915456 7.23439,7.234384 4.3619,-3.72358 1.38305,1.383044 c -0.0709,0.212776 -0.14185,0.354627 -0.21278,0.425552 l -0.21277,0.212776 c -1.91499,1.914984 -3.22711,4.184595 -3.93636,6.808832 v 28.511984 l 0.10639,0.53194 c 0.0709,0.354627 0.14185,0.602865 0.21277,0.744716 0.14185,0.141851 0.24824,0.390089 0.31917,0.744716 0.0709,0.07093 0.17731,0.212776 0.31916,0.425552 l 0.31917,0.319164 c 0.0709,0.07093 0.24823,0.283701 0.53194,0.638328 0.2837,0.354627 0.53194,0.567403 0.74471,0.638328 l 2.23415,-1.808596 1.70221,1.808596 -9.7877,8.298264 c -1.56035,-0.496477 -2.87247,-1.347581 -3.93635,-2.553312 -1.20573,-1.631283 -2.02138,-3.049789 -2.44693,-4.25552 V 52.980731 c -1.53118,-2.387753 -2.38453,-4.753704 -5.74495,-5.425788 l -6.59606,6.38328 v 25.639508 c 0.77575,1.784216 1.83912,3.487202 3.29803,5.106624 -3.33349,3.617192 -6.13504,5.957728 -8.40465,7.021608 l -7.87271,-7.234384 3.08525,-3.298028 V 51.491299 c -0.3027,-1.393749 -1.24494,-2.521351 -2.23415,-3.510804 l -2.34053,0.851104 -0.9575,-1.489432 z"
       style="font-size:106.388px;font-family:'Headline Text';-inkscape-font-specification:'Cloister Black, ';letter-spacing:0px;word-spacing:0px;fill:#70ea6c;fill-opacity:0.67451;stroke-width:0.554105"
       id="path3886"
       sodipodi:nodetypes="cscccccssccscccssccccccccccccccccccc" />
    <path
       d="m 224.51866,20.319615 c -3.40442,2.553312 -5.10663,5.815877 -5.10663,9.787696 v 22.022316 l 12.97934,-13.617664 h 0.8511 l 9.25576,11.17074 -10.10686,9.468532 c 2.97887,2.837013 5.24848,6.064116 6.80883,9.681308 1.41851,3.262565 2.376,6.986145 2.87248,11.17074 0.29596,1.918373 -0.3416,2.031147 1.48943,3.404416 l 2.02137,-0.957492 1.27666,1.383044 -9.36215,8.085488 c -0.2837,0 -0.63833,-0.07093 -1.06388,-0.212776 -0.42555,-0.141851 -0.74471,-0.212776 -0.95749,-0.212776 -2.26961,-3.759043 -3.65265,-7.057071 -4.14913,-9.894084 l -12.55378,10.319636 c -2.19869,-1.418507 -4.14913,-2.553312 -5.85134,-3.404416 -0.70925,-0.354627 -1.73767,-0.851104 -3.08526,-1.489432 -0.63833,-0.283701 -1.70221,-0.709253 -3.19164,-1.276656 0.94962,-1.255064 1.82522,-2.737349 2.23415,-4.149132 V 46.384675 h -5.53217 v -6.064116 h 5.53217 v -7.553548 c -0.70925,-3.900893 -2.23415,-7.340772 -4.57468,-10.319636 1.63128,0 3.01432,0.283701 4.14913,0.851104 1.74993,0.978749 3.10547,1.616026 4.36191,2.872476 1.48943,-1.773133 2.83701,-3.014327 4.04274,-3.72358 1.56036,-1.134805 3.31422,-1.628855 5.21301,-1.914984 0.90773,-0.136786 1.8844,-0.212776 2.44693,-0.212776 z m 0.42555,46.81072 -5.74495,5.638564 v 8.404652 l 5.95773,2.872476 5.95772,-5.3194 c -0.63833,-4.113669 -2.69516,-7.908175 -6.1705,-11.383516 z m 2.34054,-19.14984 -5.42579,4.78746 -2.44693,4.468296 v 11.596292 l 14.04322,-13.83044 z"
       style="font-size:106.388px;font-family:'Headline Text';-inkscape-font-specification:'Cloister Black, ';letter-spacing:0px;word-spacing:0px;fill:#70ea6c;fill-opacity:0.67451;stroke-width:0.554105"
       id="path3888"
       sodipodi:nodetypes="cscccccccccccscccsccccccccccccscccccccccccccc" />
    <path
       d="m 269.30806,38.511963 13.83044,14.255992 -18.29874,16.064588 v 10.532412 l 8.8302,4.25552 6.59606,-4.893848 1.48943,2.021372 -14.25599,11.17074 h -0.42555 c -5.1842,-2.070007 -9.75097,-5.374286 -15.63904,-6.170504 2.34054,-2.340536 3.51081,-5.106624 3.51081,-8.298264 V 47.767719 c 2.48239,-0.922029 5.00023,-2.234148 7.55354,-3.936356 2.12776,-1.418507 4.39737,-3.120715 6.80884,-5.106624 z m -4.4683,9.468532 v 16.702916 c 3.29816,-2.530285 6.07383,-4.422824 9.25576,-7.021608 z"
       style="font-size:106.388px;font-family:'Headline Text';-inkscape-font-specification:'Cloister Black, ';letter-spacing:0px;word-spacing:0px;fill:#70ea6c;fill-opacity:0.67451;stroke-width:0.554105"
       id="path3890"
       sodipodi:nodetypes="ccccccccccscscccccc" />
    <path
       d="m 297.07538,38.511963 c 1.91498,1.702208 3.54626,3.546267 4.89385,5.532176 1.34758,1.985909 2.05683,4.184595 2.12776,6.596056 l 13.19211,-11.915456 7.23438,7.234384 4.36191,-3.72358 1.38304,1.383044 c -0.0709,0.212776 -0.14184,0.354627 -0.21277,0.425552 l -0.21278,0.212776 c -1.91498,1.914984 -3.2271,4.184595 -3.93635,6.808832 v 28.511984 c 0.32546,1.561534 1.14376,3.298316 2.55331,4.042744 l 2.23415,-1.808596 1.7022,1.808596 -9.78769,8.298264 c -1.56036,-0.496477 -2.87248,-1.347581 -3.93636,-2.553312 -1.20573,-1.631283 -2.02137,-3.049789 -2.44692,-4.25552 V 52.980731 c -1.53117,-2.387744 -2.38454,-4.753706 -5.74495,-5.425788 l -6.59606,6.38328 v 25.639508 c 0.21277,0.638328 0.53194,1.347581 0.95749,2.12776 0.76126,1.107024 1.45294,2.028709 2.34054,2.978864 -3.33349,3.617192 -6.13504,5.957728 -8.40465,7.021608 l -7.87272,-7.234384 3.08526,-3.298028 V 51.491299 c 0,-0.354627 -0.17731,-0.815641 -0.53194,-1.383044 -0.21278,-0.354627 -0.56741,-0.851104 -1.06388,-1.489432 -0.42555,-0.212776 -0.63833,-0.425552 -0.63833,-0.638328 l -2.34054,0.851104 -0.95749,-1.489432 z"
       style="font-size:106.388px;font-family:'Headline Text';-inkscape-font-specification:'Cloister Black, ';letter-spacing:0px;word-spacing:0px;fill:#70ea6c;fill-opacity:0.67451;stroke-width:0.554105"
       id="path3892"
       sodipodi:nodetypes="cscccccsscccccccccccccccccscccccc" />
    <path
       d="m 244.67073,14.60614 -2.46631,-0.660848 c -0.93382,-9.942621 -0.29014,-19.058703 1.93103,-27.348245 l 1.98254,-7.39893 12.22878,0.02968 -1.98253,10.645947 c -1.41534,7.600199 -5.89873,15.711572 -11.69351,24.732399 z"
       style="font-size:106.388px;font-family:'Headline Text';-inkscape-font-specification:'Cloister Black, Normal';letter-spacing:0px;word-spacing:0px;fill:#70ea6c;fill-opacity:0.67451;stroke-width:0.554105"
       id="path3894"
       sodipodi:nodetypes="ccsccsc" />
    <path
       d="m 434.16608,17.447139 c 3.26257,3.120715 8.01456,6.099579 14.25599,8.936592 l -4.78746,9.255756 -12.34101,-4.574684 -7.65993,17.766796 19.78816,0.212776 -3.5108,7.9791 -11.91546,0.212776 11.17074,23.298972 c 0.99539,2.163315 3.33106,3.371387 5.21302,1.489432 l 0.95749,-1.276656 1.80859,1.702208 -9.89408,10.319636 c -4.414,-0.0366 -7.54648,-4.028701 -9.68131,-7.234384 l -10.95796,-23.511748 -13.61767,30.746132 -14.78793,-8.51104 4.14913,-10.745188 12.97934,6.276892 9.89408,-22.128704 -19.78816,-0.212776 3.5108,-8.404652 11.06435,-0.212776 -8.61743,-18.405124 c -1.19597,-2.241523 -3.67683,-3.383433 -5.85134,-3.617192 h -1.48943 c -2.50862,0.319612 -4.39549,1.390838 -6.70244,2.6597 l -1.06388,-0.212776 -0.31917,-0.425552 c 0,-1.489432 0.74472,-3.049789 2.23415,-4.681072 1.48943,-1.631283 3.08349,-2.756407 4.57469,-3.72358 2.19012,-1.420484 4.87934,-2.340536 7.55354,-2.340536 4.39737,0 8.26281,2.198685 11.5963,6.596056 l 9.46853,20.000944 c 5.24868,-9.269831 9.73603,-18.804072 12.76656,-27.235328 z"
       style="font-size:106.388px;font-family:'Headline Text';-inkscape-font-specification:'Cloister Black, ';letter-spacing:0px;word-spacing:0px;fill:#70ea6c;fill-opacity:0.67451;stroke-width:0.554105"
       id="path3896"
       sodipodi:nodetypes="cccccccccccccccccccccccccccccsscccc" />
    <path
       d="m 463.10367,38.511963 c 3.97182,3.120715 6.27339,7.16391 6.91522,12.128232 0.0258,0.199463 0.0664,0.413321 0.10639,0.638328 l 13.19211,-12.553784 c 0.49648,0.141851 1.17027,0.425552 2.02138,0.851104 2.12776,1.985909 3.54627,3.72358 4.25552,5.213012 1.1348,1.702208 1.9859,3.794505 2.55331,6.276892 l 12.44739,-12.341008 7.34078,7.659936 4.57468,-4.574684 1.48943,1.59582 c -2.05683,2.695163 -3.43988,5.248475 -4.14913,7.659936 v 27.66088 c 0.27549,1.387221 0.868,4.167155 2.87248,4.574684 l 2.02137,-1.489432 1.27665,1.59582 -8.8302,8.51104 c -2.90794,-0.496477 -4.85839,-1.773133 -5.85134,-3.829968 -1.20573,-2.553312 -1.8086,-4.929311 -1.8086,-7.127996 V 53.512671 c -0.8511,-2.624237 -2.44692,-4.468296 -4.78746,-5.532176 l -6.80883,6.596056 v 26.171448 l 3.51081,3.936356 -0.21278,0.851104 -8.19188,6.170504 -1.27665,-0.212776 -7.76633,-6.596056 c 1.56036,-0.567403 2.73063,-2.021372 3.51081,-4.361908 V 54.363775 c -0.16356,-1.868922 -1.16364,-6.38328 -4.57469,-6.38328 l -7.23438,7.021608 v 25.107568 c 1.14155,1.9448 2.19381,3.205451 3.72358,5.000236 l -8.8302,7.234384 -8.29827,-7.44716 3.29803,-3.510804 -0.21278,-31.38446 -2.02137,-2.446924 -2.87247,1.489432 -1.06388,-1.489432 z"
       style="font-size:106.388px;font-family:'Headline Text';-inkscape-font-specification:'Cloister Black, ';letter-spacing:0px;word-spacing:0px;fill:#70ea6c;fill-opacity:0.67451;stroke-width:0.554105"
       id="path3898"
       sodipodi:nodetypes="csccccccccccccccccsccccccccccccccccccccccc" />
    <path
       d="m 543.3203,38.724739 c 4.73752,1.911147 9.53195,3.709705 14.25599,5.638564 l 0.21278,-0.212776 c 0.14185,-0.212776 0.47097,-0.598151 1.06388,-1.06388 0.53671,-0.421584 1.18886,-0.707913 1.59582,-0.851104 0.65797,-0.231508 0.99267,-0.300721 1.7022,-0.425552 -0.2837,0.496477 -0.67379,1.170268 -1.17026,2.021372 -0.28371,0.425552 -0.63833,1.099343 -1.06388,2.021372 -0.35463,0.851104 -0.92203,2.198685 -1.70221,4.042744 l -0.21278,30.001416 c 0.28465,1.829962 1.37268,3.078335 2.6597,3.936356 l 1.91499,-1.383044 1.59582,1.383044 -9.25576,8.085488 h -0.63833 c -1.20573,0 -2.23414,-0.496477 -3.08525,-1.489432 -1.06388,-1.418507 -1.52066,-2.562105 -2.02137,-3.72358 -0.68888,-2.203412 -1.27666,-4.566158 -1.27666,-6.91522 l -14.04321,12.128232 c -2.55331,-1.418507 -4.64561,-3.368953 -6.2769,-5.85134 -1.56035,-2.553312 -2.34053,-5.213012 -2.34053,-7.9791 -0.0262,-2.07179 0.65447,-4.208689 1.06388,-5.744952 1.56035,-5.744952 4.57468,-10.426024 9.04298,-14.043216 l -5.21301,-14.89432 c 1.72432,1.260933 8.32022,-1.141781 8.8302,-1.383044 1.63456,-0.773278 3.08525,-1.808596 4.36191,-3.085252 z m -5.74495,21.596764 c -1.27666,1.702208 -2.16323,3.262565 -2.6597,4.681072 -0.42555,1.418507 -0.63833,2.978864 -0.63833,4.681072 0.0135,0.980698 0.0456,2.07 0.21277,2.978864 0.68765,3.738916 2.23415,7.553548 5.00024,11.383516 l 1.17027,-0.638328 7.44716,-6.596056 V 66.385619 Z m -4.14914,-14.575156 4.14914,11.70268 10.31963,5.957728 V 51.065747 l -13.19211,-5.3194 z"
       style="font-size:106.388px;font-family:'Headline Text';-inkscape-font-specification:'Cloister Black, ';letter-spacing:0px;word-spacing:0px;fill:#70ea6c;fill-opacity:0.67451;stroke-width:0.554105"
       id="path3900"
       sodipodi:nodetypes="cccsscccccccccscccccccccscccccsccccccccccc" />
    <path
       d="m 604.06798,31.703131 h 1.06388 c 1.06388,0.425552 1.73767,0.922029 2.02137,1.489432 0.45834,0.91963 0.9137,1.98141 1.06388,2.872476 v 1.702208 c -0.0253,1.000711 -0.30071,2.124206 -0.63833,2.978864 l -11.4899,16.49014 9.89408,6.170504 v 20.426496 c -3.04979,1.276656 -5.253,2.333403 -6.59606,3.19164 -2.84722,1.819418 -4.93364,3.364155 -7.44716,4.893848 -0.78017,-0.425552 -1.9859,-0.992955 -3.61719,-1.702208 -5.19901,-2.152876 -9.22629,-1.763337 -14.36238,-0.212776 -0.5674,0.212776 -1.45397,0.709253 -2.6597,1.489432 l -1.48943,-1.06388 12.66017,-18.511512 -9.68131,-5.957728 V 47.767719 c 5.74564,-2.569314 8.50885,-5.210768 12.34101,-9.04298 l 10.95797,3.936356 c 3.97651,2.593727 9.04298,0.3331 9.04298,-4.78746 -0.87055,-1.070854 -2.87248,-2.095265 -2.87248,-3.72358 v -0.319164 c 0.0224,-0.978366 1.3527,-2.013202 1.8086,-2.12776 z m -14.04322,34.04416 -10.31964,15.000708 c 6.72638,-0.3169 11.06473,-0.313617 17.12847,3.298028 v -13.83044 z m -7.76632,-5.213012 5.95772,3.510804 9.46854,-13.617664 c -4.03872,2.115064 -12.68937,-1.007353 -15.42626,-2.021372 z"
       style="font-size:106.388px;font-family:'Headline Text';-inkscape-font-specification:'Cloister Black, ';letter-spacing:0px;word-spacing:0px;fill:#70ea6c;fill-opacity:0.67451;stroke-width:0.554105"
       id="path3902"
       sodipodi:nodetypes="cccccccccscccscccccccccccccccccccc" />
    <path
       d="m 334.22993,22.002092 h 6.38328 l -8.51104,11.489904 z"
       style="font-size:106.388px;font-family:'Headline Text';-inkscape-font-specification:'Cloister Black, ';letter-spacing:0px;word-spacing:0px;fill:#70ea6c;fill-opacity:0.67451;stroke-width:0.554105"
       id="path4803" />
  </g>
</svg>
