<?xml version="1.0" encoding="UTF-8"?>
<svg width="3.4324in" height=".4992in" version="1.1" viewBox="0 0 89.173 12.969" xmlns="http://www.w3.org/2000/svg" xmlns:xlink="http://www.w3.org/1999/xlink"><defs><radialGradient id="c" cx="72.356" cy="20.983" r=".83745" gradientTransform="matrix(.62293 -.26972 .26054 .60172 21.817 27.873)" gradientUnits="userSpaceOnUse"><stop stop-color="#ff9696" offset="0"/><stop stop-color="#f00" offset="1"/></radialGradient><radialGradient id="b" cx="72.356" cy="20.983" r=".83745" gradientTransform="matrix(.62293 -.26972 .26054 .60172 41.095 30.691)" gradientUnits="userSpaceOnUse"><stop stop-color="#e596ff" offset="0"/><stop stop-color="#9c00ff" offset="1"/></radialGradient></defs><g transform="translate(-15.998 -17.234)"><g fill="#61cc5e" stroke-width=".083434"><path d="m18.545 17.234 1.682 0.43252c0.38653 0.1838 1.3612-0.13348 1.682-0.19223 0.0534 0 0.14951-0.01602 0.28835-0.04806 0.18155-0.04271 0.37378-0.06408 0.57669-0.06408-0.27489 0.18732-0.55551 0.39672-0.80096 0.57669-0.38246 0.28042-0.64611 0.47524-0.78494 0.59271-0.27767 0.25631-0.45975 0.52532-0.59271 0.78494-0.10524 0.20549-0.1457 0.37129-0.24029 0.62475-0.11346 0.78874-0.0056 1.8302-0.03204 2.5951-0.02136 0.3631-0.05874 0.90776-0.11213 1.634-0.0066 0.40338-0.03246 0.79491-0.0801 1.1694-0.09612 0.32039-0.21893 0.58737-0.36844 0.80096-0.23348 0.35668-0.36303 0.51155-0.59271 0.81698-0.03204 0.03204-0.0534 0.06407-0.06407 0.09612 0.45922-0.28835 0.8597-0.62475 1.2014-1.0092 0.34174-0.39514 0.55-0.86504 0.62475-1.4097v-4.0369c0-1.132 0.92378-2.1039 2.7713-2.9155 0.30465-0.12317 0.73503-0.31182 1.1053-0.38446 0.1568-0.02313 0.28993-0.04564 0.4165-0.01602 0.54466 0.09612 1.0306 0.43252 1.4578 1.0092 0.07785 0.24268 0.09612 0.50064 0.09612 0.7529 0 0.56601-0.18155 1.0893-0.54466 1.5699-0.48711 0.59453-0.83506 0.91516-1.2976 1.3777 0.18734 0.0076 0.31036 0.01937 0.46456 0.04806 1.0687 0.1988 1.6607 0.71553 1.7781 1.5378v3.2199l-1.4898 0.35242c-0.32038 0.13883-0.79562 0.3631-1.4257 0.67281-0.43786 0.23495-0.8864 0.4966-1.3456 0.78494-1.3697-0.58424-2.3941-0.70994-3.7325-0.70485-0.56601 0.03204-1.1107 0.20291-1.634 0.51262-0.12171 0.18888-0.27016 0.36581-0.27233 0.59271 0.0215 0.30852 0.15647 0.54769 0.27233 0.86504-0.04271 0.14951-0.13212 0.22664-0.24029 0.28835-0.08644 0.04931-0.21676 0.05459-0.30436 0.01602-0.1181-0.052-0.21359-0.12282-0.28835-0.20825-0.23705-0.4119-0.09069-1.0967 0.16019-1.4257 0.02136-0.03204 0.12282-0.14951 0.30437-0.35242 0.07476-0.08544 0.18689-0.20825 0.3364-0.36844l0.40048-0.40048c0.11748-0.11748 0.22427-0.24029 0.32038-0.36844 0.14664-0.21229 0.25114-0.45934 0.32038-0.68883 0.2569-0.82801-0.51474-0.97951-1.1374-0.7529-0.1068 0.0534-0.26165 0.14951-0.46456 0.28835-0.36364-0.39378 0.24731-1.0288 0.52864-1.1854 0.25631-0.18155 0.53932-0.27767 0.84902-0.28835 0.15727-0.02603 0.27126 0.0072 0.3364-0.11213 0.09943-0.26746-0.09858-0.58409-0.24029-0.73689-0.29939-0.30884-0.60508-0.49607-1.0092-0.52864-0.29087 0.03851-0.66934 0.1734-0.88106 0.27233-0.12892 0.06024-0.26991 0.16712-0.4165 0.19223l-0.03204-0.09612c0-0.67281 0.4966-1.1694 1.4898-1.4898 0.03204-0.01068 0.09078-0.0267 0.17621-0.04806 0.02136 0 0.07476-0.01068 0.16019-0.03204 0.04272-0.01068 0.09612-0.02136 0.16019-0.03204 0.07476-0.01068 0.12815-0.01602 0.16019-0.01602v-0.09612c0-0.01068 0.0053-0.0267 0.01602-0.04806v-0.04806c0.01068-0.11748 0.03738-0.29369 0.0801-0.52864 0.07476-0.4699 0.29903-0.95048 0.67281-1.4417l1.3296-1.0573c-0.04272 0.04272-0.14417 0.09078-0.30437 0.14417-0.07476 0.01068-0.17621 0.04272-0.30437 0.09612-0.07476 0.01068-0.18155 0.0267-0.32038 0.04806-0.63787 0.14088-1.0898-0.18787-1.682-0.27233-0.13078-0.01865-0.26165-0.04806-0.40048-0.04806-0.14951 0-0.3331 0.01979-0.52864 0.11214-0.19046 0.08994-0.33427 0.2368-0.46456 0.38446-0.02998 0.03397-0.05874 0.06407-0.0801 0.09612-0.02136 0.03204-0.04806 0.10146-0.0801 0.20825-0.01068 0.01068-0.0267 0.04272-0.04806 0.09612-0.07564-0.06065-0.10551-0.2237-0.12815-0.3364 0.01292-0.3043 0.14845-0.53898 0.27233-0.76892 0.02265-0.04205 0.07678-0.12561 0.17621-0.24029 0.13262-0.15297 0.2559-0.31963 0.38446-0.44854 0.19223-0.1068 0.40048-0.20291 0.62475-0.28835 0.23495-0.08544 0.46456-0.12939 0.68883-0.12815 0.06368 3.47e-4 0.26477 8.14e-4 0.40048 0zm5.03 8.6344v1.1213l0.86504 0.30437 0.89708-0.40048v-1.0252c-0.56446-0.18612-1.1477-0.17065-1.7621 0zm0.22427-7.7053c-0.51763 0.10474-1.2117 0.80218-1.2175 1.3136v4.5334c0 0.68349-0.24029 1.2335-0.72087 1.65-0.4699 0.40582-0.99319 0.74756-1.5699 1.0252 1.0025-0.17581 1.9376 0.04806 2.9155 0.04806v-5.9592h0.36844v1.682c0.39514-0.19223 0.75824-0.51796 1.0893-0.97717 0.30971-0.42718 0.46456-0.8864 0.46456-1.3777-0.04477-0.91265-0.37473-1.3273-1.1213-1.8582-0.06145-0.03415-0.13658-0.06423-0.20825-0.0801zm-0.22427 7.2087c0.56502-0.09122 1.2423-0.07969 1.7621 0.03204v-1.1534c-0.48788 0.1506-1.2581 0.09306-1.7621-0.03204zm0.89708-2.9796-0.89708 0.65679v0.70485c0.01068 0.03204 0.02136 0.0534 0.03204 0.06407 0.59527 0.16453 1.2112 0.22381 1.65-0.03204v-0.3364c0-0.20291-0.06921-0.42546-0.22427-0.65679-0.1423-0.2123-0.32524-0.36835-0.56067-0.40048z"/><path d="m31.809 17.699c-0.29903 0.26699-0.4966 0.5233-0.59271 0.76892-0.10679 0.28835-0.18689 0.59271-0.24029 0.9131v7.1125l0.86504 0.65679 0.28835-0.22427 0.24029 0.27233-1.5218 1.3456c-0.32038-0.32038-0.63009-0.58203-0.92912-0.78494-0.34174-0.23495-0.70485-0.42718-1.0893-0.57669 0.4165-0.26699 0.62475-0.63009 0.62475-1.0893v-7.0485c-0.11748-0.42718-0.34708-0.7796-0.68883-1.0573 0.4828-0.01326 1.0758 0.42564 1.2815 0.65679 0.22427-0.25631 0.4165-0.4432 0.57669-0.56067 0.20291-0.17087 0.4421-0.29329 0.72087-0.35242 0.21383-0.04537 0.35875-0.03204 0.46456-0.03204z"/><path d="m34.596 20.534 1.1694 1.0573-0.46456 0.60873v4.5014c0 0.17087 0.02136 0.30971 0.06407 0.4165 0.0534 0.09612 0.14951 0.17621 0.28835 0.24029l0.36844-0.30437 0.24029 0.24029-1.4257 1.2175c-0.25631 0-0.4699-0.08544-0.64077-0.25631-0.24563-0.24563-0.37912-0.51262-0.40048-0.80096-0.01068-0.04272-0.01602-0.1068-0.01602-0.19223v-5.0941l-0.36844-0.64077zm0.52864-2.5791h0.96116l-1.2815 1.7301z"/><path d="m38.233 20.438c0.28835 0.25631 0.53398 0.53398 0.73689 0.833 0.20291 0.29903 0.3097 0.63009 0.32038 0.99319l1.9864-1.7942 1.0893 1.0893 0.65679-0.56067 0.20825 0.20825c-0.01068 0.03204-0.02136 0.0534-0.03204 0.06407l-0.03204 0.03204c-0.28835 0.28835-0.48592 0.63009-0.59271 1.0252v4.2932l0.01602 0.0801c0.01068 0.0534 0.02136 0.09078 0.03204 0.11214 0.02136 0.02136 0.03737 0.05874 0.04806 0.11213 0.01068 0.01068 0.0267 0.03204 0.04806 0.06407l0.04806 0.04806c0.01068 0.01068 0.03737 0.04272 0.0801 0.09612 0.04272 0.0534 0.0801 0.08544 0.11213 0.09612l0.3364-0.27233 0.25631 0.27233-1.4738 1.2495c-0.23496-0.07475-0.43253-0.20291-0.59272-0.38446-0.18155-0.24563-0.30437-0.45922-0.36844-0.64077v-4.8378c-0.23056-0.35953-0.35905-0.71578-0.86504-0.81698l-0.99319 0.96116v3.8606c0.11681 0.26866 0.27692 0.52508 0.4966 0.76892-0.50194 0.54466-0.92378 0.89708-1.2655 1.0573l-1.1854-1.0893 0.46456-0.4966v-4.4694c-0.04558-0.20986-0.18746-0.37965-0.3364-0.52864l-0.35242 0.12815-0.14417-0.22427z"/><path d="m47.396 17.699c-0.51262 0.38446-0.76892 0.87572-0.76892 1.4738v3.316l1.9544-2.0505h0.12815l1.3937 1.682-1.5218 1.4257c0.44854 0.42718 0.79028 0.9131 1.0252 1.4578 0.21359 0.49126 0.35776 1.0519 0.43252 1.682 0.04456 0.28886-0.05144 0.30584 0.22427 0.51262l0.30437-0.14417 0.19223 0.20825-1.4097 1.2175c-0.04272 0-0.09611-0.01068-0.16019-0.03204-0.06407-0.02136-0.11213-0.03204-0.14417-0.03204-0.34174-0.56601-0.54999-1.0626-0.62475-1.4898l-1.8903 1.5539c-0.33106-0.21359-0.62475-0.38446-0.88106-0.51262-0.10679-0.0534-0.26165-0.12815-0.46456-0.22427-0.09612-0.04271-0.25631-0.1068-0.48058-0.19223 0.14299-0.18898 0.27483-0.41217 0.3364-0.62475v-5.3024h-0.833v-0.9131h0.833v-1.1374c-0.1068-0.58737-0.3364-1.1053-0.68883-1.5539 0.24563 0 0.45388 0.04272 0.62475 0.12815 0.26349 0.14737 0.4676 0.24333 0.65679 0.43252 0.22427-0.26699 0.42718-0.45388 0.60873-0.56067 0.23495-0.17087 0.49904-0.24526 0.78494-0.28835 0.13668-0.02059 0.28374-0.03204 0.36844-0.03204zm0.06407 7.0485-0.86504 0.84902v1.2655l0.89708 0.43252 0.89708-0.80096c-0.09611-0.61941-0.40582-1.1908-0.92911-1.7141zm0.35242-2.8835-0.81698 0.72087-0.36844 0.67281v1.7461l2.1145-2.0825z"/><path d="m54.14 20.438 2.0825 2.1466-2.7553 2.4189v1.5859l1.3296 0.64077 0.99319-0.73689 0.22427 0.30437-2.1466 1.682h-0.06407c-0.7806-0.31169-1.4682-0.80923-2.3548-0.92912 0.35242-0.35242 0.52864-0.76892 0.52864-1.2495v-4.4694c0.37378-0.13883 0.7529-0.3364 1.1374-0.59271 0.32038-0.21359 0.66213-0.4699 1.0252-0.76892zm-0.67281 1.4257v2.515c0.49662-0.381 0.91456-0.66596 1.3937-1.0573z"/><path d="m58.321 20.438c0.28835 0.25631 0.53397 0.53398 0.73689 0.833 0.20291 0.29903 0.3097 0.63009 0.32038 0.99319l1.9864-1.7942 1.0893 1.0893 0.65679-0.56067 0.20825 0.20825c-0.01068 0.03204-0.02136 0.0534-0.03204 0.06407l-0.03204 0.03204c-0.28835 0.28835-0.48592 0.63009-0.59271 1.0252v4.2932c0.049 0.23513 0.17222 0.49664 0.38446 0.60873l0.3364-0.27233 0.25631 0.27233-1.4738 1.2495c-0.23495-0.07476-0.43252-0.20291-0.59271-0.38446-0.18155-0.24563-0.30437-0.45922-0.36844-0.64077v-4.8378c-0.23055-0.35953-0.35905-0.71578-0.86504-0.81698l-0.9932 0.96116v3.8606c0.03204 0.09612 0.0801 0.20291 0.14417 0.32038 0.11463 0.16669 0.21878 0.30547 0.35242 0.44854-0.50194 0.54466-0.92378 0.89708-1.2655 1.0573l-1.1854-1.0893 0.46456-0.4966v-4.4694c0-0.0534-0.0267-0.12281-0.0801-0.20825-0.03204-0.0534-0.08544-0.12815-0.16019-0.22427-0.06407-0.03204-0.09612-0.06407-0.09612-0.09612l-0.35242 0.12815-0.14417-0.22427z"/><path d="m78.963 17.266c0.49126 0.4699 1.2068 0.91844 2.1466 1.3456l-0.72087 1.3937-1.8582-0.68883-1.1534 2.6752 2.9796 0.03204-0.52864 1.2014-1.7942 0.03204 1.682 3.5082c0.14988 0.32574 0.50157 0.50764 0.78494 0.22427l0.14417-0.19223 0.27233 0.25631-1.4898 1.5539c-0.66463-0.0055-1.1363-0.60662-1.4578-1.0893l-1.65-3.5403-2.0505 4.6296-2.2267-1.2815 0.62475-1.6179 1.9543 0.94514 1.4898-3.332-2.9796-0.03204 0.52864-1.2655 1.666-0.03204-1.2976-2.7713c-0.18008-0.33752-0.55364-0.50946-0.88106-0.54466h-0.22427c-0.37773 0.04813-0.66185 0.20942-1.0092 0.40048-0.10755 0.0085-0.15142-0.02034-0.20825-0.09612 0-0.22427 0.11214-0.45922 0.3364-0.70485 0.22427-0.24563 0.46429-0.41504 0.68883-0.56067 0.32978-0.21389 0.7347-0.35242 1.1374-0.35242 0.66213 0 1.2442 0.33106 1.7461 0.99319l1.4257 3.0116c0.79032-1.3958 1.466-2.8314 1.9223-4.1009z"/><path d="m83.32 20.438c0.59805 0.4699 0.94461 1.0787 1.0413 1.8262 0.0039 0.03003 0.01 0.06224 0.01602 0.09612l1.9864-1.8903c0.07476 0.02136 0.17621 0.06407 0.30437 0.12815 0.32038 0.29903 0.53398 0.56067 0.64076 0.78494 0.17088 0.25631 0.29903 0.57135 0.38446 0.94514l1.8743-1.8582 1.1053 1.1534 0.68884-0.68883 0.22427 0.24029c-0.30971 0.40582-0.51796 0.79028-0.62475 1.1534v4.165c0.04151 0.20888 0.1307 0.62746 0.43252 0.68883l0.30436-0.22427 0.19223 0.24029-1.3296 1.2815c-0.43786-0.07476-0.73155-0.26699-0.88106-0.57669-0.18156-0.38446-0.27233-0.74223-0.27233-1.0733v-4.133c-0.12815-0.39514-0.36844-0.67281-0.72086-0.833l-1.0252 0.99319v3.9407l0.52864 0.59271c-0.37855 0.3656-0.93056 0.84838-1.2897 1.1363-0.47757-0.40324-0.89753-0.73062-1.3374-1.1042 0.23495-0.08544 0.41116-0.30437 0.52864-0.65679v-3.9407c-0.02463-0.28141-0.17521-0.96116-0.68883-0.96116l-1.0893 1.0573v3.7805c0.17189 0.29284 0.33033 0.48266 0.56067 0.75291l-1.3296 1.0893-1.2495-1.1213c0.28655-0.09891 0.43302-0.39355 0.4966-0.69163l-0.03204-4.5627-0.30436-0.36844-0.43252 0.22427-0.16019-0.22427z"/><path d="m95.399 20.47c0.71334 0.28777 1.4353 0.55858 2.1466 0.84902l0.032-0.03204c0.02139-0.03204 0.07089-0.09007 0.16019-0.16019 0.08083-0.06348 0.17901-0.10659 0.24029-0.12816 0.09907-0.03486 0.14947-0.04528 0.2563-0.06407-0.04269 0.07476-0.10146 0.17621-0.17621 0.30437-0.04269 0.06407-0.09612 0.16553-0.16019 0.30436-0.05338 0.12816-0.13883 0.33106-0.2563 0.60873l-0.03208 4.5174c0.04286 0.27554 0.2067 0.46352 0.40048 0.59271l0.28835-0.20825 0.24028 0.20825-1.3937 1.2175h-0.09611c-0.18156 0-0.3364-0.07476-0.46456-0.22427-0.16019-0.21359-0.22897-0.38579-0.30436-0.56067-0.10373-0.33178-0.19223-0.68754-0.19223-1.0413l-2.1145 1.8262c-0.38446-0.21359-0.6995-0.50728-0.94513-0.88106-0.23495-0.38446-0.35242-0.78494-0.35242-1.2014-0.0042-0.31196 0.09855-0.63372 0.16019-0.86504 0.23494-0.86504 0.68883-1.5699 1.3616-2.1145l-0.78495-2.2427c0.25964 0.18986 1.2528-0.17192 1.3296-0.20825 0.24613-0.11644 0.46456-0.27233 0.6568-0.46456zm-0.86504 3.2519c-0.19223 0.25631-0.32573 0.49126-0.40048 0.70485-0.06408 0.21359-0.09611 0.44854-0.09611 0.70485 0.0017 0.14767 0.0067 0.31169 0.03199 0.44854 0.10354 0.56298 0.3364 1.1374 0.7529 1.7141l0.17622-0.09612 1.1213-0.99319v-1.5699zm-0.62475-2.1946 0.62475 1.7621 1.5539 0.89708v-1.8582l-1.9864-0.80096z"/><path d="m63.915 17.952h0.96116l-1.2815 1.7301z"/></g><g transform="translate(.49011 -.48779)"><circle cx="72.548" cy="21.205" r=".83745" fill="url(#c)" stop-color="#000000" stroke-dasharray="0.462033, 0.15401" stroke-linecap="round" stroke-linejoin="round" stroke-width=".15401"/><g stroke-linecap="round"><path d="m72.555 20.252c-0.04206 6.35e-4 -0.08426 0.0066-0.12633 0.01744v0.15645l0.01638-0.01638 0.01216 0.01269c5.75e-4 -1e-4 1e-3 -4.31e-4 0.0016-5.29e-4l0.01639-0.01638 0.01163 0.01163 0.0148-0.01427 0.01216 0.01216 0.01533-0.01533 0.01321 0.01321 0.01321-0.01321 0.01321 0.01321c3.49e-4 1e-6 7.08e-4 -3e-6 0.0011 0l0.01374-0.01374 0.01427 0.01427c3.49e-4 1.9e-5 7.08e-4 -1.9e-5 0.0011 0l0.01268-0.01216 0.01321 0.01321 0.01163-0.01163 0.01427 0.01427 0.01163-0.01163 0.01427 0.01427 0.0079-0.0079 0.01321 0.01321v-0.1554c-0.04767-0.01209-0.09504-0.01816-0.14271-0.01744z" fill="#fbff00" stop-color="#000000" stroke-dasharray="3.06848, 1.02282" stroke-linejoin="round" stroke-width="1.0228"/><path d="m72.46 20.271c-0.11473-0.33032 0.31435-0.3382 0.20741 0.0038" fill="none" stroke="#fbff00" stroke-width=".051141"/></g><path id="a" transform="matrix(.21789 0 0 .21789 27.495 17.799)" d="m208.15 13.726-0.31241-0.1414-0.29085 0.18168 0.0379-0.34082-0.26266-0.22047 0.33587-0.06924 0.12851-0.31793 0.16963 0.29803 0.34209 0.02397-0.23103 0.25343z" fill="#fff" stop-color="#000000"/><use transform="matrix(.58882 0 0 .58882 29.374 8.6016)" xlink:href="#a"/><use transform="matrix(.56489 0 0 .56489 30.994 9.6447)" xlink:href="#a"/><use transform="matrix(1.0161 0 0 1.0161 -1.2894 .56633)" xlink:href="#a"/><use transform="matrix(.52023 0 0 .52023 34.69 10.477)" xlink:href="#a"/><use transform="matrix(.8721 0 0 .8721 8.7329 3.5392)" xlink:href="#a"/><use transform="matrix(1.1725 0 0 1.1725 -13.084 -3.2186)" xlink:href="#a"/><use transform="matrix(.50552 0 0 .50552 36.055 10.716)" xlink:href="#a"/><use transform="matrix(.98941 0 0 .98941 1.0244 1.1624)" xlink:href="#a"/><use transform="matrix(1.4827 0 0 1.4827 -34.747 -9.5389)" xlink:href="#a"/><use transform="matrix(1.1803 0 0 1.1803 -13.363 -2.5756)" xlink:href="#a"/><use transform="matrix(1.2062 0 0 1.2062 -15.844 -3.9758)" xlink:href="#a"/><use transform="matrix(.75564 0 0 .75564 17.497 5.2383)" xlink:href="#a"/><use transform="matrix(.85229 0 0 .85229 10.474 2.9424)" xlink:href="#a"/></g><g transform="rotate(-22.036 91.729 24.049)" stroke-linecap="round"><circle cx="91.826" cy="24.023" r=".83745" fill="url(#b)" stop-color="#000000" stroke-dasharray="0.462033, 0.15401" stroke-linejoin="round" stroke-width=".15401"/><g transform="translate(19.278 2.8185)"><path d="m72.555 20.252c-0.04206 6.35e-4 -0.08426 0.0066-0.12633 0.01744v0.15645l0.01638-0.01638 0.01216 0.01269c5.75e-4 -1e-4 1e-3 -4.31e-4 0.0016-5.29e-4l0.01639-0.01638 0.01163 0.01163 0.0148-0.01427 0.01216 0.01216 0.01533-0.01533 0.01321 0.01321 0.01321-0.01321 0.01321 0.01321c3.49e-4 1e-6 7.08e-4 -3e-6 0.0011 0l0.01374-0.01374 0.01427 0.01427c3.49e-4 1.9e-5 7.08e-4 -1.9e-5 0.0011 0l0.01268-0.01216 0.01321 0.01321 0.01163-0.01163 0.01427 0.01427 0.01163-0.01163 0.01427 0.01427 0.0079-0.0079 0.01321 0.01321v-0.1554c-0.04767-0.01209-0.09504-0.01816-0.14271-0.01744z" fill="#fbff00" stop-color="#000000" stroke-dasharray="3.06848, 1.02282" stroke-linejoin="round" stroke-width="1.0228"/><path d="m72.46 20.271c-0.11473-0.33032 0.31435-0.3382 0.20741 0.0038" fill="none" stroke="#fbff00" stroke-width=".051141"/></g><g fill="none" stroke="#fff" stroke-width=".051141"><ellipse cx="91.097" cy="24.021" rx=".081824" ry=".13403" stop-color="#000000"/><ellipse cx="91.304" cy="24.023" rx=".11136" ry=".13403" stop-color="#000000"/><circle cx="91.567" cy="24.027" r=".13403" stop-color="#000000"/><circle cx="91.844" cy="24.023" r=".13403" stop-color="#000000"/><circle cx="92.114" cy="24.026" r=".13403" stop-color="#000000"/><ellipse cx="92.358" cy="24.024" rx=".10714" ry=".13403" stop-color="#000000"/><ellipse cx="92.562" cy="24.026" rx=".081824" ry=".13403" stop-color="#000000"/></g></g><path d="m104.55 19.413h0.1602c0.16019 0.06407 0.26165 0.13883 0.30436 0.22427 0.069 0.13847 0.13758 0.29835 0.16019 0.43252v0.25631c-4e-3 0.15068-0.0453 0.31985-0.0961 0.44854l-1.7301 2.483 1.4898 0.92912v3.0757c-0.45922 0.19223-0.79096 0.35135-0.9932 0.48058-0.42871 0.27396-0.74287 0.50655-1.1214 0.73689-0.11747-0.06407-0.29901-0.14951-0.54464-0.25631-0.78284-0.32417-1.3892-0.26551-2.1626-0.03204-0.08544 0.03204-0.21893 0.1068-0.40048 0.22427l-0.22428-0.16019 1.9063-2.7874-1.4577-0.89708v-2.7393c0.86515-0.38687 1.2812-0.7846 1.8582-1.3616l1.65 0.59271c0.59876 0.39055 1.3616 0.05016 1.3616-0.72087-0.13108-0.16124-0.43253-0.31549-0.43253-0.56067v-0.04806c3e-3 -0.14732 0.20369-0.30314 0.27233-0.32038zm-2.1145 5.1262-1.5539 2.2587c1.0128-0.04772 1.6661-0.04722 2.5791 0.4966v-2.0825zm-1.1694-0.78494 0.89708 0.52864 1.4257-2.0505c-0.60813 0.31847-1.9107-0.15168-2.3228-0.30436z" fill="#61cc5e" stroke-width=".083434"/><path d="m104.97 20.232c-0.13642 0.05476 0.0325 0.26598-0.1382 0.08534-0.022 0.11297-0.0583 0.07386-0.1322 0.01457-0.19188-0.24047 9e-3 0.30119-0.1268 0.06452-0.10269-0.18588-0.0902 0.07112-0.0302 0.17277-0.10184-0.17914-0.0238 0.16003-0.1608-0.0011-0.0372 0.03597-0.20724-0.09278-0.11869 0.09132-0.11363-0.17263-0.13145-0.05297-0.049 0.12169-0.0202-0.0776-0.18877-0.22411-0.1326-0.05076 0.1201 0.23012-0.14611 0.05564-0.0339 0.23839-0.15658-0.16932-0.21165-0.03975-0.0409 0.06762-0.23597-0.21194-0.11888 0.0395-0.12932 0.02562-0.26683-0.17757 0.0312 0.14512-0.16375 0.08758-0.0175 0.07864-0.0802 0.12823 0.0499 0.15264-0.16883 0.09156 0.137 0.13787 0.0781 0.14457-0.36667-0.07423 0.0414 0.07179-0.13938 0.04681-0.14188 0.06189 0.21553 0.11949 0.0223 0.11789-0.15438-0.0718-0.1155 0.12037 5e-3 0.14392-0.0873 0.0802 0.17411 0.08027-0.0174 0.1427 0.34249 0.10666-0.2483-0.07757 0.0111 0.07249 0.0701 0.11799-0.2849 0.06434 0.043 0.14269 0.20556 0.05826-0.33853-0.04201-0.0259 0.06599-0.12116-0.0053-0.24154 0.11565-0.0164 0.1316 0.14403 0.09084-0.12245 0.10846 0.11301 0.19814-0.0447 0.04849-0.2931 0.0069-0.0697 0.13012 0.18684 0.09075-0.27944 0.05903 0.0171 0.1739-0.0706-0.08516-0.25422 0.03708-0.18122 0.09104 0.10474-0.01419-0.0841 0.19512-0.12149 0.02946-0.0686-0.0415-0.17487-0.10926-0.19377 0.03716 0.0368 0.2529-0.013-0.05786-0.0843 0.02112-0.0399-0.06942-0.1657-0.08184-0.0883 0.12159 0.0187 0.02652-0.16137-0.23729-0.0699 0.01262-0.11858 0.0085-0.0218 0.07217-0.19228-0.0081 0.0969 0.20451-0.0889-0.04059-0.0462 0.15773-0.056-0.05472-0.19799-0.02551-0.1154 0.06283-0.12808-0.16214-0.0368 0.18176-0.24539 0.01696 0.0676 0.09989 0.0157 0.17996-0.0955 0.07473-0.18609-0.16652 0.0773 0.18189-0.0736 0.08954-0.0633 0.04639-0.2174-0.0556-0.1677 0.11546 0.0712 0.0961-0.1539-0.0023-0.1031 0.09342-0.11516-0.02456 0.11798 0.23134-0.1476 0.11527-0.0297 0.07239-0.0795 0.13117-0.1038 0.10377 0.092 0.14246-0.0787 0.21984-0.2013 0.05813-0.0893 0.10123 0.069 0.15669 0.0823 0.24631-0.19294-0.19655-0.0401 0.22747-0.15337 3.73e-4 -0.0941 0.01216-0.035 0.1278-0.0125 0.15859-0.0919-0.03354-7e-3 0.16766-0.18441 0.04035-0.12178 0.01346-7e-3 0.26103-0.12866 0.1835-0.20575-0.10462-0.0336 0.10402 0.079 0.14586-0.0679 0.11452-0.2371-0.19351-0.2769-0.01903 0.13655 0.09861 0.21145 0.21282 0.0488 0.06455-0.0364 0.14395-0.0387 0.11056-8e-3 0.23838-0.28881-0.08584 0.18173 0.12503-0.0813 0.20737 2e-3 0.09212-0.17632-0.06885-0.11394 0.08747 0.17785 0.23718-0.14631-0.04011-0.0559 0.10596 0.21478 0.19028-0.13868-0.02274 0.0656 0.1832-0.1377-0.13689-0.2795-0.07135-0.10102 0.02374 0.16351 0.03831-0.043 0.10118 0.0334 0.18258 0.11855 0.03236-0.26511-0.03603-0.0443 0.08758 0.0104 0.11407 0.0455 0.08805-0.0738 0.16475 0.0374 0.04231 0.16509 0.12162 0.0949 0.16562-9e-3 0.08048 0.36459 0.27091 0.11162 0.25586-0.0674 0.07863 0.0657 0.06304-0.0583 0.19309 0.17239-0.03264 0.14293 0.08584 0.20928 0.11212 0.0732 0.06841-0.10887 0.07157 0.0362 0.11103-0.0981-0.03583-0.0195 0.09122-0.17798 0.05232-0.15486 0.03052 0.25885 0.16955 0.0253 0.15194-0.23177 0.09834 0.32621 0.02447 0.1085 0.09871-0.0395 0.06795 0.0986 0.06571-0.1182 0.05022-0.081 0.02828 5e-3 0.16515-0.12291 0.14543 0.0707 0.09316-0.15505 0.1285 0.0911 0.16847 0.10148 0.18645-0.25686-0.11195-0.15248 0.05474 0.0302 0.14263-0.0955-0.05813-0.19512 0.04987 0.0618 0.17157 0.0282 0.18516-0.0897 0.18985 0.0701 0.20273-0.14905 0.10276-0.13567 0.19614-0.0977-0.0324-0.0462 0.08097-0.1482 0.08663-0.0855-0.14671-0.12084 0.16519-0.14989-0.03481-0.14232-0.02741-7e-3 0.185-0.1224 0.16337-0.10754-0.21269-0.0601 0.19363-0.17417 0.03328-0.0865-0.13814-0.13775 0.05874-0.14768 0.01782-0.036-0.17507-0.1346-0.07847-0.17911-0.11688-0.0418-0.03187-0.0897 0.37746-0.10383 0.09013-0.044-0.0584-0.17049 0.12618-0.24412 0.08931 0.0399-0.29864-0.0754-0.04223-0.0996 0.09227 0.0411-0.11186 0.0149-0.32976-0.0811-0.10842-0.0775 0.05045-0.14629 0.36459-0.14906 0.16099 0.0839-0.22067-0.0452-0.36283-0.0548-0.06006 0.0147 0.14844-0.11302 0.32226-0.0688 0.06894 0.0707-0.1595-0.0372-0.33345-0.0517-0.06767-0.10285 0.21139-0.12357 0.25588-0.16627 0.10683-0.12558 0.12362-6e-3 -0.21191-0.1269 0.07189 0.046-0.23086-0.0745-0.17307-0.0899 0.02374-0.19331 0.0891 0.0982-0.25785-0.13552-0.06493 0.0347-0.19488-0.18758 0.10254-0.11009-0.10587-0.1051 0.11566-0.0968 0.11323-0.2384 0.0989-0.1255 0.13915-0.23269 0.15022-0.13127-0.05635 0.18576-0.14997-5e-3 -0.17269-0.0356-0.11824-0.0808 0.28288-0.17626 0.07551-0.0705-0.05038 0.0287-0.17855-0.14193 0.17711-0.23908 0.20589-0.0987 0.15226-0.11221-0.07627-0.1955 0.1369 0.11757-0.28386 5e-3 -0.1458-0.0973-0.05709-0.088 0.12308 0.0635-0.1999 0.13828-0.28806 0.10775-0.26573-0.16334 0.15078-0.16172 0.02371 0.14791-0.22187-0.0362-0.20485-0.12331-0.01963 0.13256-0.22881-0.0316-0.11179-0.14798 0.05571-0.0643 0.04337-0.22713 0.31349-0.17533 0.14676 0.0847-0.114 0.22508-0.37223 0.0135-0.16743-0.0754 0.08361-0.0467-0.29893-0.15337 0.0342-0.0969 0.27951-0.0613-0.06382 0.0435-0.13925 0.0596-0.23785-0.15338 0.12544-0.20636 0.20762-0.16593 0.1137 0.0322-0.11292-0.12731-0.02641 0.10339-0.16361 0.0267-0.21527-0.0925-0.09509-0.15959 0.17384 0.19831-0.34976-0.0667-0.0409-0.0808 0.19902-0.14364 0.03963-0.15443-0.03873-0.1735 0.12981-0.033-0.22162-0.1499-0.07203-0.0468 0.23036-0.0679-0.08762-0.159 0.06771-0.13001 0.12265 0.26817-0.35766 0.0678-0.22239-0.09 0.13918-0.17265 0.18811-0.23177 0.13572 0.15553-0.20422 0.0513-0.19103-0.10002-0.06756-0.20577 0.11444 0.054-0.10497 0.0307-0.1872-0.0937-0.10614-0.22099 0.15735-0.25763 0.03488-0.0492 0.13537-0.19789 0.1468-0.19482 0.28005 0.0495 0.1579-0.37253 0.25073-0.22459 0.31109 0.19639-0.13151 0.18191-0.14806 0.14227 0.02036 0.0478-0.02051 0.14777 0.06456 0.249-0.06284-0.23628 0.22457 0.19408-0.07869-0.0466 0.14937 0.0716 0.10664 0.26937-0.24253 0.31297-8.92e-4 0.20108-0.04571-0.20856 0.18168-0.13147 0.25 0.10274-0.07501 0.33267-0.17153 0.21011-0.03438 0.12009-0.1101 0.20008 0.03736 0.27615-0.09091 0.0266 0.09529 0.0916 0.15896 0.1416 0.13002 0.0656 0.16391 0.0617-0.15864 0.1104-0.14542-0.0574 0.14098-0.0277 0.28501 0.13931 0.074-0.0886 0.17003-0.0218 0.16844 0.0833-0.02874 0.0365 0.06888-0.0444 0.25411 0.0169 0.32045 0.0834-0.16757 0.0666-0.15624 0.13687 1.34e-4 0.0204-0.0616 0.034-0.46298 0.0503-0.14174-6e-3 0.37162 0.0997-0.22021 0.0735 0.11421 0.0991 0.20362 0.0158-0.32577 0.0555-0.20971 4e-3 0.14533 0.094 0.02937 0.0615 0.19111 0.0445-0.07427 0.22551 0.17393 0.14638-0.10363-0.0423-0.21795 0.0863 0.25126 0.14784 0.2362 0.0575-0.0733-0.1775-0.42165-0.0168-0.25321 0.0862 0.09337 0.049 0.23926 0.14665 0.1759 0.0796-0.06483 0.23663-0.26953 0.17906-0.1423 0.20025-0.07023-0.10497 0.20433 0.14988 0.04124 0.0402 0.10199 0.19508 0.34381 0.1013 0.04492 0.14895-0.15496-0.0451 0.15392 0.1038 0.01276 0.11571-0.1221 0.18501-0.08892 0.1234 0.14742 0.011-0.06054 0.18426-0.4462 0.14139-0.19852-0.19778 0.2314 0.12854-0.07333 0.0401 0.1014-0.12247 0.24964 0.0357 0.26474 0.065 0.0052 0.0429-0.01863 0.13517-0.20919 0.0982 0.01267-1e-4 0.29258 0.0249-0.04908 0.13234-0.03226-0.10049-0.19837 0.13937-0.04893 0.0752 0.03128-0.0902 0.21838 0.14109-0.09437 0.1734-0.16557-0.10234 0.22089-7e-3 0.1416 0.1139 0.0053 0.085-0.13643-0.0227 0.2432 0.0958 0.06488 0.0448 0.10908 0.11414 0.25442 0.15958 0.09577 0.0769-0.30618 5e-3 0.03584 0.11676 0.0027 0.0866 0.02796 0.21501-0.39394 0.1854-0.12352 0.0269 0.18768 0.25447-0.2881 0.13327-0.07159-0.0357 0.19641 0.0441 0.10681 0.15913-0.01106 0.0359-0.24141-0.0307 0.26943 0.0893-0.06323 0.0403-0.14688 0.25598-0.21489 0.24427-0.07082-0.11293 0.2385 0.0291 0.26116 0.0549 0.05579 0.0798-0.10921 0.0846-0.09961 0.1189-0.19927 0.0323-0.06496 0.11687 0.17115 0.16676 0.07776-0.0647-0.204 0.0649 0.02518 0.15757-0.06097-0.0191-0.17938 0.17888 0.13146 0.11697-0.07117-0.11317-0.24963 0.0645-0.06563 0.0926 0.0901 0.11422 0.07895-0.0353-0.20693 0.13012-0.08803 0.17312 0.10437-0.0652-0.30706 0.10247-0.07456 0.2208 0.13695 0.047-0.11348-0.0666-0.21724 0.12853-0.05262 0.13795 0.24439 0.17971 0.08761 0.15288 0.17732 0.0651-0.20221 0.18034-0.05651 0.027-0.15663-0.0484-0.32696 0.0649-0.11084 0.0241 0.10469 0.23323 0.06774 0.108-0.0407 0.13395 0.11353 0.16982-0.0049 0.0578-0.16173-0.0802-0.11569 0.24733 0.21716 0.1105-0.01907 0.089-0.10231-0.0423-0.27635 0.13935-0.24754 0.12122 0.02302-0.0305-0.17462 0.18874 0.0064 0.081-0.11472-0.19839-0.12622 0.0173-0.18759-0.0466-0.0437 0.0908-0.0567-4e-3 -0.1391 0.10982 0.0084 0.0524-0.14994 0.1406-0.14535-6e-3 -0.12349-0.24356-0.11094-0.078-0.15739 0.0493-0.09275 0.0811-0.04391 0.1565-0.14645-0.0959 0.04457-0.32174-0.13001-0.1454-0.04662 0.078-0.10064 0.0521-0.15173-0.0773-0.17964-0.0532-0.03575 0.3809-0.03728 0.12947-0.10177 0.15936-0.04813-0.34751-0.08526-0.0629-0.08383-0.02-0.15916-0.19222-9e-3 -0.0206-0.15989-0.20401-0.0312-0.19027-0.1701-1e-3 -0.0806-0.12484-0.09331 4e-3 -0.0741-0.0516-0.15277-0.14836-0.03673-0.2384-0.13188-0.0542-0.1243-0.14282-0.14569 0.0867-0.14136-0.15095-0.17816-7e-3 -0.08685 0.27233 0.07282 0.18712-0.11308-0.0379-0.03282-0.15374-0.25075-0.039-0.19291-0.095-0.08379-0.19029-0.20486 0.0181-0.08891 0.23301 0.07038-0.16262-0.19089-0.0286-0.29964 0.15549 0.23506 0.0494-0.07816 0.1369-0.04386 0.19725 0.0516-0.14486-0.25016 0.0776-0.08778-0.0226-0.09311-0.053-0.18485 0.0922-0.135-0.0538-0.10392 0.20872-0.03237 0.0907-0.17677-0.18347-0.17246 0.12131 0.05856 0.10642-0.08467-0.0718-0.06015 0.0112-0.15273-5.4e-4 -0.18578 0.22919 0.24495 0.0734-0.04921 0.11523 0.0055 9e-3 -0.02303-0.0914-0.26487 0.0991-0.10448 0.14335 0.01918 0.14009-0.12063 0.0806-0.14873 0.21127 0.12663-0.14888-0.27038 0.0751-0.0461 0.1297 0.03505-0.0659-0.11016 0.11908-0.04123-0.13135-0.23362 0.0548 0.04864 0.14541 0.02674-0.0503-0.10842-0.2618-0.32272-0.0289-0.19508-0.0451-0.08276 0.0813-0.12348 0.1169-0.02179 0.032-0.09741 0.10867-0.01408 0.0655-0.14641 0.0879 0.13478 0.073-0.09706 0.19369 0.05323 0.11647-0.05051-0.22998-0.38313-0.0305-0.17898 0.21858 0.24971-0.0913-0.19433 0.10524 0.0068 0.15017 0.05627 0.12724-0.02501 0.0751-0.11156 0.0119-0.18648 0.088 0.23418 0.1815 0.06446 0.0685 0.02568 0.10271-0.06415-0.10123-0.19258-6e-3 -0.27063 0.27725 0.19195 0.27144 0.0013 0.0627 0.07849 0.14541-0.04155 0.11153-0.03912 0.11942 0.11372 0.14969-0.21823 0.14226 0.01707 0.0277 0.05341 0.1861 0.03039 0.17062-0.10767 0.0192-0.24028 0.0142 0.11234 0.12242 0.09077 0.0457-0.15628 0.064-0.1297 0.12026-0.20504-0.0853-0.23398 0.25642-0.07239 0.20904-0.16812-0.32743-0.11228 0.32815 0.02711 0.0943-0.09223 0.0279-0.02064 0.0531-0.14286-0.0223-0.13599 0.20056-0.02908 0.095-0.09462 0.022-0.15054 0.03-0.03759 0.16762-0.0034 0.01-0.14268 0.19837 0.07524 0.15368-0.0087 0.0202-0.09979 0.0109-0.06241-0.20381-0.19711 0.0239-0.19524 0.18143-0.07544-0.29366-0.06673-0.0344-0.16602-0.2569-0.01842 0.23402 0.01934-0.0373-0.08074-0.19941-0.09223 0.2786-0.02845-0.056-0.1285 0.0514-0.01193 0.1297-0.07274-9e-3 -0.15013 0.14207-0.0038-0.0258-0.07053 6e-3 -0.12262 0.0403-0.10446 0.28118-0.03455 0.0982-0.14386 6e-3 -0.0042 0.18066-0.02488 0.1111-0.12578-0.26561-0.09294-0.0107-0.0206-0.039-0.12532 0.1047-0.07245 3e-3 -0.0902 0.1434-0.15433-0.25937-0.06027 3e-3 -0.09509 0.0449 0.05268 0.1317 0.02001-0.0262-0.25894 0.036-0.22181 0.0542-5e-3 0.15683 0.19847 0.18717 0.06575-0.0938-0.19933 0.11751 0.06553 0.0528-0.20117 0.0707 0.19233 0.1457 0.03095 0.23351 0.02957-0.0832-0.17764 0.0968 0.12501 0.17509 0.04283 0.064-0.04714 0.12265 0.10272 0.21392 0.10145 0.0782-0.09527-0.1961-0.31748 0.0278-0.13809 0.062-0.15769-0.10841-0.36586-0.1536-0.54775-0.10515-0.1718-0.14826 0.1248-0.16199 0.10763-0.12491-0.28022-0.0189 0.13085-0.0816 0.073l-0.0339-0.27417zm0.20244 0.08351c0.0495 0.10114-0.0269 0.16034 0 0zm-0.31925 0.15381c0.0742 0.07057-0.0163 0.10981 0 0zm-0.5164 0.13214c0.0235 0.01918-0.0121 0.01776 0 0zm0.51376 0.2035c0.0449 0.0725-0.0304-0.0041 0 0zm-0.32771 0.11417c0.0325 0.04021 0.0245 0.05607 0 0zm-0.13531 0.06713c0.0698 0.10273-0.1021 0.04052 0 0zm-0.5719 0.24895c0.10507-4e-3 0.11417 0.04916 0 0zm0.31555 0.30604c0.12097 0.03326-0.0237 0.04397 0 0zm-0.43395 0.11364c0.0731 0.0398 0.0528 0.04204 0 0zm0.12739 0.09884c0.0239-0.0019 6e-3 0.01337 0 0zm-0.0814 0.2294c0.14165 0.01823 0.11358 0.17878 0 0zm0.36047 0.148c8e-3 4.17e-4 -7.5e-4 0.0027 0 0zm-0.35889 0.18341c0.13427 0.01441 0.10766 0.03441 0 0zm0.0502 0.10677c0.0134-0.0073 5e-3 0.01283 0 0zm0.35889 0.19081c0.0144-0.0082 0.0478 0.04139 0 0zm-0.0243 0.09091c0.0311 0.0063-5e-3 0.0094 0 0zm-0.0349 0.0444c0.15309 0.07537-0.0615 0.10984 0 0zm0.0793 0.07188c0.0152 0.0039-4e-3 8e-3 0 0zm-0.11892 0.12791c0.18278 0.07842 0.0285 0.03444 0 0zm-0.62476 0.06713c0.0335 0.06999-0.027 0.07662 0 0zm0.58934 0.02643c0.0456 0.0063-0.0164 0.01431 0 0zm-0.57983 0.29916c-3e-3 0.02188-0.0119-0.0064 0 0zm-0.59092 0.22147c0.11151 0.05485-0.0742 0.0161 0 0zm-0.70034 0.04281c0.12789 0.06714 0.0407 0.13818 0 0zm0.62317 0.0032c0.0992 0.09405 7e-3 0.10228 0 0zm-0.39114 0.28119c0.0347 0.03189-0.0349 0.0072 0 0zm-0.49737 0.02537c0.0844 0.0073 0.0238 0.07726 0 0zm0.39748 0.06078c0.081 0.07147-0.082 0.03422 0 0zm-0.13637 0.1369c0.0356 0.0063 0.0191 0.04941 0 0zm0.0243 0.02801c0.0213 0.02493-0.0101 0.0064 0 0zm-0.0661 0.0021c0.10918 0.06278-3e-3 0.0464 0 0zm-0.51376 0.1332c0.037-0.0044-3e-3 0.03792 0 0zm0.36206 0.11364c0.0429 0.0159-7e-3 0.0076 0 0zm-0.72254 0.15275c0.0303-8e-6 -6e-3 0.0453 0 0zm0.018 0.0296c0.0612 0.06875 0.0534 0.11905 0 0zm0.42866 0.05761c0.0606 0.04761-0.0527 0.0221 0 0zm-0.0608 0.08034c0.14402 0.13424-0.0148 0.06808 0 0zm-0.53437 0.24049c0.0497 0.02187 0.0196 0.06737 0 0zm0.37845 0.0011c0.0387 0.01591-4.7e-4 0.01365 0 0zm-0.0523 0.06131c0.0181 0.01154 0.016 0.02551 0 0zm-0.35731 0.03964c0.0271-6e-3 3e-3 0.03084 0 0zm0.0603 0.6718c0.25017 0.16253-0.16327 0.11472 0.0216 0.04389 5e-3 -0.01694-0.0268-0.02689-0.0216-0.04389zm-0.31449 0.20772c6e-3 -0.0055 5e-3 0.01009 0 0zm-0.0312 0.18764c0.0629-0.0022 0.061 0.06095 0 0zm0.0692 0.20614c8e-3 -0.0052 2e-3 0.0078 0 0zm0.49579 0.87265c0.0973 0.03193-0.0792 0.02638 0 0zm-0.46989 0.16068c0.17017 0.03938 0.0455 0.034 0 0zm0.45879 0.01956c0.0262 0.0048 0.0156 0.01872 0 0zm-0.40329 0.1258c0.0535-0.02578 0.0118 0.05498 0 0zm0.28701 0.11047c0.0855-0.0044 0.037 0.03878 0 0zm-9e-3 0.06765c0.0302 0.016-0.031-0.0039 0 0zm-0.65171 0.02854c0.0525 0.05827 0.0322 0.10339 0 0zm0.54125 0.07876c0.1345 0.07361-0.064 0.04132 0 0zm-0.45298 0.06184c0.0264 0.01099-0.0105 0.01945 0 0zm-0.1924 0.10201c0.0125 0.10064 5e-3 0.03781 0 0zm0.49104 0.01374c0.0922 0.24083-0.10162 0.0742 0 0zm-6.0324 0.15328c0.0105 0.04285-0.0641 0.01105 0 0zm5.858 0.01956c0.15662 0.16816 0.0477 0.1275 0 0zm-5.9505 0.05708c0.013 0.09217-0.0912 0.20067 0 0zm5.1926 0.04546c0.0507 0.01102-0.0205 0.04535 0 0zm-4.9251 0.01744c-0.0536 0.07322-0.0634 0.04696 0 0zm4.8796 0c0.035 0.05288-0.0179 0.01866 0 0zm-5.2359 0.0111c-4e-3 0.06197-0.0808 0.06043 0 0zm0.39008 0.0222c0.0118 0.07273-0.11145 0.08753 0 0zm4.2945 0.02431c0.0361 0.03482-0.0546 0.04577 0 0zm-4.1878 0.0042c0.0132 9.69e-4 -2e-3 0.02641 0 0zm-0.0719 0.0407c0.043 0.01906-0.043 0.05491 0 0zm0.22781 0.01744c0.0432 0.14149-0.0345 0.13896 0 0zm4.2475 0.0032c0.053 0.12802-2e-3 -0.02167 0 0zm-4.0049 0.05233c0.0441 0.04514-0.062 0.10681 0 0zm1.1549 0.0016c0.01 0.09172-0.2018 0.24744 0 0zm2.3346 9e-3c-0.0643 0.17872-0.22583 0.12667 0 0zm0.0946 0.02431c0.0702 0.10908-0.10406 0.18052 0 0zm0.97941 0.01269c0.0537 0.10776 9.3e-4 0.05199 0 0zm-4.6566 0.03647c0.0198 0.01217-0.01 0.01064 0 0zm0.32031 0.0021c-8e-3 0.08797-0.0816 0.05101 0 0zm-1.1681 0.02379c0.0613 0.11237-0.11644 0.16617 0 0zm5.4209 0.03066c7e-3 0.0023 2e-3 0.02256 0 0zm-1.1908 0.0037c7e-3 0.02244-0.0281 4.97e-4 0 0zm-3.1322 0.0021c0.0131 0.0085-0.0118 0.0043 0 0zm0.87688 0.0016c0.0524 0.05466-0.0138 0.03835 0 0zm0.16227 0.0063c-0.0431 0.13233-0.1099 0.04064 0 0zm0.46301 0.0069c5e-3 6e-3 -0.0155 0.01205 0 0zm2.831 0.01691c0.0741 0.04483 0.0446 0.15429 0 0zm-4.1661 0.0053c4e-3 0.0045-8e-3 1e-3 0 0zm1.3166 0.0074c0.0249 0.01229-0.036 0.02905 0 0zm-2.3716 0.0011c0.0327-0.0032-0.0275 0.0364 0 0zm1.2263 0c0.0254 0.04412-0.0575 0.02344 0 0zm0.52063 0.0296c7e-3 0.0022-6e-3 0.0098 0 0zm-0.0476 0.0053c0.0355 0.04635-0.07 0.06978 0 0zm1.0994 0.0042c7e-3 0.0084-0.0145 0.0032 0 0zm-0.39536 0.0037c0.0209 0.08415-0.0887 0.04599 0 0zm0.62 0.0095c0.01 0.05804-0.12042 0.13148 0 0zm-0.24314 0.0021c0.0254 0.06671-0.0556 0.01035 0 0zm0.13108 0.01427c0.0119 0.04057-0.0577 0.04133 0 0zm0.66282 0.0032c5e-3 0.05992-0.0436 0.05205 0 0zm-0.16386 0.0016c-6e-3 0.09066-0.0793 0.06884 0 0zm-0.29969 0.01057c-7e-3 0.04319-0.0502 0.01923 0 0zm-1.4239 5.29e-4c0.0195 0.0034-8e-3 0.02426 0 0zm0.64167 0.0069c0.0961 0.07688-0.11564 0.0984 0 0zm-2.0291 0.0016c0.0886-0.01663-0.0244 0.06892 0 0zm2.4261 0.0085c-0.0121 0.04126-0.0676 0.04832 0 0zm0.36471 0.01004c-7e-3 0.04393-0.0439 0.01798 0 0zm0.0597 0.0063c-0.021 0.05891-0.0453 0.03797 0 0zm-1.0127 0.01004c0.0164 0.01725-0.0345 0.02231 0 0zm1.1036 0.0148c4e-3 0.0047-7e-3 4e-3 0 0zm-0.99316 0.0016c4e-3 0.01619-0.033 0.0047 0 0zm0.5201 0.0095c0.0198 0.02316-0.0458 0.01278 0 0zm-0.28013 0.0069c8e-3 0.0034-6e-3 0.0044 0 0zm-1.9699 0.01057c6e-3 0.0322-0.0122 0.0028 0 0zm0.1702 0.02484c0.0392 0.02649-1e-3 0.05997 0 0zm-0.35361 0.04651c-8e-3 0.02643-0.0198-0.0068 0 0zm0.58247 0.0053c0.0121-0.0038-1e-3 0.0101 0 0zm-0.0597 0.01956c0.0533 0.05523-0.0944 0.09933 0 0zm3.1544 0.04334c-0.0155 0.11341-0.0698 0.02091 0 0zm-0.10359 0.02907c0.0607 0.01646-0.0277 0.0493 0 0zm-0.148 0.01797c-2e-3 0.14837-0.066 0.08184-2e-4 0zm-0.18711 0.02907c-0.0601 0.29809-0.20546 0.06538 0 0zm-1.7072 0.01216c0.0664 0.0089-0.0437 0.10131 0 0zm1.5962 0.0011c-0.0111 0.0122-4e-3 -0.0043 0 0zm-0.17072 0.01744c-8e-3 0.0299-0.0125-9e-3 0 0zm-1.0085 0.0148c0.01-0.0054-2e-3 0.01646 0 0zm0.80552 0c0.12105 0.13171-0.0755 0.16811 0 0zm0.0671 0.0021c0.0452 0.07688-0.0453 0.0157 0 0zm-0.2183 0.0042c-0.0394 0.13421-0.04-0.02285 0 0zm-0.49578 5.29e-4c0.0277-0.0035-0.073 0.04698 0 0zm0.36629 0.0058c0.0222 7e-3 -0.0194 0.03251 0 0zm-0.99158 0.01427c0.0198 0.12368-0.0507 0.02779 0 0zm1.9039 0.03647c2e-3 -6.72e-4 -1e-3 0.0029 0 0zm-0.0386 0.0085c0.10502-0.0056-0.073 0.19299 0 0z" color="#000000" fill="#f2f3c4" stroke-linecap="round" stroke-linejoin="round" style="-inkscape-stroke:none"/><path d="m104.55 19.413c-0.0686 0.01725-0.2692 0.17299-0.2722 0.32031v0.048099c0 0.24518 0.30128 0.39956 0.43236 0.5608 0 0.22512-0.10659 0.488-0.21354 0.63216l0.03224 0.053384 0.05814 0.0333-0.04334 0.48152 0.5349-0.768c0.0508-0.12869 0.0922-0.29807 0.0962-0.44875v-0.25635c-0.0226-0.13417-0.0911-0.29389-0.16015-0.43236-0.0427-0.08544-0.14426-0.16004-0.30445-0.22411h-0.16016zm-2.851 1.0571c-0.57702 0.57703-0.99327 0.9747-1.8584 1.3616v2.7395l0.83143 0.51164 0.88216-1.1591-0.28806-0.16967v-1.8262c0.28761 0.10656 1.009 0.3677 1.6253 0.40752v-1.3188h0.3277l-1.5201-0.54653zm1.5085 2.3109-1.0418 1.4979 0.0222 0.014272 0.25001 0.24684 1.0228 0.6718v2.0825c-0.66892-0.39842-1.1984-0.50504-1.832-0.51482l-0.21777 1.2358c0.2444 0.028848 0.49588 0.095351 0.76853 0.20825 0.24563 0.10679 0.42694 0.19228 0.54441 0.25635 0.37848-0.23033 0.69289-0.46286 1.1216-0.73681 0.20224-0.12923 0.53395-0.28823 0.99317-0.48046v-3.0762l-1.49-0.92868 0.33193-0.47676h-0.47306zm-1.924 2.7094-1.1523 1.6845 0.67973-0.37369c0.02425-0.001809 0.04794-0.003256 0.07188-0.004757l0.74844-1.0878-0.34779-0.2183zm-1.7337 2.878 0.066598 0.04757c0.005219-0.003377 0.01019-0.006207 0.015328-0.009514-0.028101-0.012937-0.054992-0.0256-0.081926-0.038056z" fill="#61cc5e" stroke-width=".083434"/><path d="m73.056 19.591v-2.077" fill="none" stroke="#f0f400" stroke-dasharray="0.05114118,0.05114118" stroke-width=".051141"/><path d="m91.394 22.94-0.71694-1.3378" fill="none" stroke="#f0f400" stroke-dasharray="0.0511412, 0.0511412" stroke-width=".051141"/><g><rect transform="rotate(45)" x="39.152" y="-9.7492" width="1.2067" height="1.2067" fill="#f00" stop-color="#000000"/><rect transform="rotate(45)" x="43.9" y="-14.544" width="1.1368" height="1.1368" fill="#0f0" stop-color="#000000"/><rect transform="rotate(45)" x="49.243" y="-19.69" width="1.1402" height="1.1402" fill="#0041ff" stop-color="#000000"/></g></g></svg>
